<svg width="47" height="48" viewBox="0 0 47 48" fill="none" xmlns="http://www.w3.org/2000/svg">
<g id="iconoir:github-circle">
<g id="Group">
<path id="Vector" d="M23.4998 44C34.3157 44 43.0832 35.046 43.0832 24C43.0832 12.954 34.3157 4 23.4998 4C12.684 4 3.9165 12.954 3.9165 24C3.9165 35.046 12.684 44 23.4998 44Z" stroke="#F8F8F8" stroke-width="3.125" stroke-linecap="round" stroke-linejoin="round"/>
<path id="Vector_2" d="M28.0688 38V34.274C28.1178 33.654 28.0336 33.034 27.8221 32.448C27.6092 31.8616 27.2752 31.3289 26.8429 30.886C30.9417 30.432 35.25 28.886 35.25 21.798C35.2463 19.9761 34.5432 18.2283 33.2917 16.93C33.8873 15.3462 33.8451 13.5861 33.1742 12.034C33.1742 12.034 31.633 11.58 28.0688 13.956C25.0741 13.1497 21.9259 13.1497 18.9312 13.956C15.3671 11.58 13.8259 12.036 13.8259 12.036C13.1561 13.5869 13.1138 15.3454 13.7084 16.928C12.4482 18.2359 11.7444 19.999 11.75 21.834C11.75 28.872 16.0584 30.416 20.1572 30.922C19.7296 31.361 19.3984 31.888 19.1858 32.468C18.9748 33.0436 18.8879 33.6589 18.9312 34.272V38" stroke="#F8F8F8" stroke-width="3.125" stroke-linecap="round" stroke-linejoin="round"/>
<path id="Vector_3" d="M18.931 35.4041C15.0144 36.6661 11.7498 35.4041 9.7915 31.5081" stroke="#F8F8F8" stroke-width="3.125" stroke-linecap="round" stroke-linejoin="round"/>
</g>
</g>
</svg>
