<svg width="50" height="50" viewBox="0 0 50 50" fill="none" xmlns="http://www.w3.org/2000/svg">
<g id="ph:check-square-thin">
<path id="Vector" d="M33.3652 19.7598C33.4379 19.8323 33.4955 19.9185 33.5348 20.0133C33.5741 20.1082 33.5944 20.2098 33.5944 20.3125C33.5944 20.4152 33.5741 20.5168 33.5348 20.6117C33.4955 20.7065 33.4379 20.7927 33.3652 20.8652L22.4277 31.8027C22.3552 31.8754 22.269 31.933 22.1742 31.9723C22.0793 32.0116 21.9777 32.0319 21.875 32.0319C21.7723 32.0319 21.6707 32.0116 21.5758 31.9723C21.481 31.933 21.3948 31.8754 21.3223 31.8027L16.6348 27.1152C16.4882 26.9686 16.4058 26.7698 16.4058 26.5625C16.4058 26.3552 16.4882 26.1564 16.6348 26.0098C16.7814 25.8632 16.9802 25.7808 17.1875 25.7808C17.3948 25.7808 17.5936 25.8632 17.7402 26.0098L21.875 30.1445L32.2598 19.7598C32.3323 19.6871 32.4185 19.6295 32.5133 19.5902C32.6082 19.5509 32.7098 19.5306 32.8125 19.5306C32.9152 19.5306 33.0168 19.5509 33.1117 19.5902C33.2065 19.6295 33.2927 19.6871 33.3652 19.7598ZM42.9688 9.375V40.625C42.9688 41.2466 42.7218 41.8427 42.2823 42.2823C41.8427 42.7218 41.2466 42.9688 40.625 42.9688H9.375C8.7534 42.9688 8.15726 42.7218 7.71772 42.2823C7.27818 41.8427 7.03125 41.2466 7.03125 40.625V9.375C7.03125 8.7534 7.27818 8.15726 7.71772 7.71772C8.15726 7.27818 8.7534 7.03125 9.375 7.03125H40.625C41.2466 7.03125 41.8427 7.27818 42.2823 7.71772C42.7218 8.15726 42.9688 8.7534 42.9688 9.375ZM41.4062 9.375C41.4062 9.1678 41.3239 8.96909 41.1774 8.82257C41.0309 8.67606 40.8322 8.59375 40.625 8.59375H9.375C9.1678 8.59375 8.96909 8.67606 8.82257 8.82257C8.67606 8.96909 8.59375 9.1678 8.59375 9.375V40.625C8.59375 40.8322 8.67606 41.0309 8.82257 41.1774C8.96909 41.3239 9.1678 41.4062 9.375 41.4062H40.625C40.8322 41.4062 41.0309 41.3239 41.1774 41.1774C41.3239 41.0309 41.4062 40.8322 41.4062 40.625V9.375Z" fill="#F8F8F8"/>
</g>
</svg>
