<svg width="50" height="50" viewBox="0 0 50 50" fill="none" xmlns="http://www.w3.org/2000/svg">
<g id="ph:square-thin">
<path id="Vector" d="M40.625 7.03125H9.375C8.7534 7.03125 8.15726 7.27818 7.71772 7.71772C7.27818 8.15726 7.03125 8.7534 7.03125 9.375V40.625C7.03125 41.2466 7.27818 41.8427 7.71772 42.2823C8.15726 42.7218 8.7534 42.9688 9.375 42.9688H40.625C41.2466 42.9688 41.8427 42.7218 42.2823 42.2823C42.7218 41.8427 42.9688 41.2466 42.9688 40.625V9.375C42.9688 8.7534 42.7218 8.15726 42.2823 7.71772C41.8427 7.27818 41.2466 7.03125 40.625 7.03125ZM41.4062 40.625C41.4062 40.8322 41.3239 41.0309 41.1774 41.1774C41.0309 41.3239 40.8322 41.4062 40.625 41.4062H9.375C9.1678 41.4062 8.96909 41.3239 8.82257 41.1774C8.67606 41.0309 8.59375 40.8322 8.59375 40.625V9.375C8.59375 9.1678 8.67606 8.96909 8.82257 8.82257C8.96909 8.67606 9.1678 8.59375 9.375 8.59375H40.625C40.8322 8.59375 41.0309 8.67606 41.1774 8.82257C41.3239 8.96909 41.4062 9.1678 41.4062 9.375V40.625Z" fill="#F8F8F8"/>
</g>
</svg>
