<svg width="50" height="50" viewBox="0 0 50 50" fill="none" xmlns="http://www.w3.org/2000/svg">
<g id="wpf:sun" clip-path="url(#clip0_27_60)">
<path id="Vector" d="M24.8193 -0.0596073C24.7379 -0.0449213 24.6576 -0.0250082 24.5789 8.03918e-06C24.1447 0.097319 23.7577 0.342169 23.4838 0.692833C23.21 1.0435 23.0662 1.47828 23.0769 1.92308V7.69232C23.0769 8.20235 23.2796 8.69149 23.6402 9.05214C24.0009 9.41278 24.49 9.61539 25 9.61539C25.5101 9.61539 25.9992 9.41278 26.3598 9.05214C26.7205 8.69149 26.9231 8.20235 26.9231 7.69232V1.92308C26.9328 1.64962 26.8841 1.37723 26.7801 1.12412C26.6761 0.871002 26.5193 0.642992 26.3202 0.455319C26.121 0.267647 25.8841 0.124634 25.6253 0.0358357C25.3665 -0.0529627 25.0917 -0.0855017 24.8193 -0.0596073ZM13.1616 3.06539C12.8483 3.11006 12.551 3.23131 12.2958 3.41841C12.0407 3.60551 11.8356 3.85267 11.6989 4.13798C11.5621 4.42329 11.4979 4.73793 11.5118 5.05401C11.5258 5.3701 11.6175 5.67786 11.7789 5.95001L14.6635 10.9981C14.9242 11.4331 15.345 11.7486 15.8356 11.8769C16.3262 12.0053 16.8476 11.9362 17.2879 11.6846C17.7283 11.433 18.0524 11.0189 18.1909 10.531C18.3295 10.0432 18.2713 9.52046 18.0289 9.07501L15.1443 4.02693C14.9521 3.6828 14.6589 3.40601 14.3043 3.23403C13.9497 3.06204 13.5508 3.00318 13.1616 3.06539ZM36.1769 3.06539C35.8996 3.11883 35.6375 3.23268 35.4092 3.39886C35.1808 3.56505 34.9919 3.77948 34.8558 4.02693L31.9712 9.07501C31.7288 9.52046 31.6706 10.0432 31.8091 10.531C31.9476 11.0189 32.2718 11.433 32.7121 11.6846C33.1524 11.9362 33.6738 12.0053 34.1644 11.8769C34.6551 11.7486 35.0759 11.4331 35.3366 10.9981L38.2212 5.95001C38.4012 5.64286 38.4924 5.29177 38.4847 4.93584C38.477 4.57991 38.3706 4.23312 38.1774 3.93407C37.9842 3.63503 37.7118 3.39548 37.3905 3.24211C37.0693 3.08874 36.7117 3.02756 36.3577 3.06539C36.2981 3.06262 36.2365 3.06262 36.1769 3.06539ZM44.8923 11.4789C44.8311 11.4957 44.7708 11.5156 44.7116 11.5385C44.4781 11.5772 44.2539 11.6587 44.05 11.7789L39.0019 14.6635C38.567 14.9242 38.2515 15.345 38.1231 15.8356C37.9948 16.3262 38.0638 16.8476 38.3154 17.2879C38.567 17.7282 38.9812 18.0524 39.469 18.1909C39.9569 18.3294 40.4796 18.2713 40.925 18.0289L45.9731 15.1442C46.4081 14.9602 46.7601 14.6225 46.9621 14.1956C47.1641 13.7686 47.2019 13.2823 47.0683 12.8293C46.9348 12.3762 46.6391 11.9882 46.2378 11.7392C45.8365 11.4901 45.3576 11.3974 44.8923 11.4789ZM4.68656 11.5385C4.28157 11.5901 3.90351 11.7692 3.6071 12.0499C3.31069 12.3307 3.11132 12.6985 3.03785 13.1001C2.96439 13.5017 3.02064 13.9162 3.19846 14.2837C3.37628 14.6512 3.66645 14.9526 4.02695 15.1442L9.07502 18.0289C9.52048 18.2713 10.0432 18.3294 10.531 18.1909C11.0189 18.0524 11.433 17.7282 11.6846 17.2879C11.9362 16.8476 12.0053 16.3262 11.8769 15.8356C11.7486 15.345 11.4331 14.9242 10.9981 14.6635L5.95003 11.7789C5.56948 11.5565 5.1222 11.4717 4.68656 11.5385ZM25 11.5385C23.2322 11.5385 21.4817 11.8867 19.8485 12.5632C18.2153 13.2397 16.7313 14.2312 15.4813 15.4813C14.2313 16.7313 13.2397 18.2153 12.5632 19.8485C11.8867 21.4817 11.5385 23.2322 11.5385 25C11.5385 26.7678 11.8867 28.5183 12.5632 30.1515C13.2397 31.7847 14.2313 33.2687 15.4813 34.5188C16.7313 35.7688 18.2153 36.7603 19.8485 37.4368C21.4817 38.1134 23.2322 38.4615 25 38.4615C28.5702 38.4615 31.9942 37.0433 34.5188 34.5188C37.0433 31.9942 38.4616 28.5702 38.4616 25C38.4616 21.4298 37.0433 18.0058 34.5188 15.4813C31.9942 12.9567 28.5702 11.5385 25 11.5385ZM25 15.3846C30.3019 15.3846 34.6154 19.6981 34.6154 25C34.6154 30.3019 30.3019 34.6154 25 34.6154C19.6981 34.6154 15.3846 30.3019 15.3846 25C15.3846 19.6981 19.6981 15.3846 25 15.3846ZM1.38272 23.0769C0.872686 23.1486 0.412011 23.4199 0.102035 23.8312C-0.207941 24.2426 -0.341826 24.7602 -0.270166 25.2702C-0.198507 25.7802 0.0728268 26.2409 0.484145 26.5509C0.895462 26.8609 1.41307 26.9947 1.9231 26.9231H7.69233C8.20236 26.9231 8.69151 26.7205 9.05215 26.3598C9.4128 25.9992 9.61541 25.51 9.61541 25C9.61541 24.49 9.4128 24.0008 9.05215 23.6402C8.69151 23.2795 8.20236 23.0769 7.69233 23.0769H1.9231C1.86288 23.0741 1.80256 23.0741 1.74233 23.0769C1.68211 23.0741 1.62179 23.0741 1.56156 23.0769C1.50198 23.0742 1.4423 23.0742 1.38272 23.0769ZM41.7673 23.0769C41.2573 23.1486 40.7966 23.4199 40.4866 23.8312C40.1767 24.2426 40.0428 24.7602 40.1144 25.2702C40.1861 25.7802 40.4574 26.2409 40.8688 26.5509C41.2801 26.8609 41.7977 26.9947 42.3077 26.9231H48.0769C48.587 26.9231 49.0761 26.7205 49.4368 26.3598C49.7974 25.9992 50 25.51 50 25C50 24.49 49.7974 24.0008 49.4368 23.6402C49.0761 23.2795 48.587 23.0769 48.0769 23.0769H42.3077C42.2475 23.0741 42.1872 23.0741 42.1269 23.0769C42.0674 23.0742 42.0077 23.0742 41.9481 23.0769C41.8879 23.0741 41.8276 23.0741 41.7673 23.0769ZM9.91541 31.6712C9.85486 31.6881 9.79517 31.708 9.73656 31.7308C9.50314 31.7695 9.27887 31.851 9.07502 31.9712L4.02695 34.8558C3.59196 35.1165 3.27646 35.5373 3.14811 36.0279C3.01977 36.5185 3.08881 37.0399 3.34042 37.4802C3.59202 37.9205 4.00617 38.2447 4.49402 38.3832C4.98187 38.5217 5.50458 38.4636 5.95003 38.2212L10.9981 35.3365C11.4336 35.1527 11.7861 34.8149 11.9884 34.3876C12.1906 33.9603 12.2284 33.4735 12.0945 33.0201C11.9605 32.5667 11.6643 32.1786 11.2624 31.9298C10.8604 31.6809 10.3809 31.5889 9.91541 31.6712ZM39.6635 31.7308C39.2584 31.782 38.8801 31.9609 38.5834 32.2416C38.2867 32.5222 38.0871 32.89 38.0134 33.2916C37.9397 33.6933 37.9958 34.108 38.1735 34.4756C38.3512 34.8433 38.6414 35.1448 39.0019 35.3365L44.05 38.2212C44.4955 38.4636 45.0182 38.5217 45.506 38.3832C45.9939 38.2447 46.408 37.9205 46.6596 37.4802C46.9112 37.0399 46.9803 36.5185 46.8519 36.0279C46.7236 35.5373 46.4081 35.1165 45.9731 34.8558L40.925 31.9712C40.5445 31.7488 40.0991 31.664 39.6635 31.7308ZM15.9846 38.0404C15.7073 38.0938 15.4452 38.2077 15.2169 38.3739C14.9885 38.54 14.7996 38.7545 14.6635 39.0019L11.7789 44.05C11.5365 44.4955 11.4783 45.0182 11.6168 45.506C11.7553 45.9939 12.0795 46.408 12.5198 46.6596C12.9601 46.9112 13.4815 46.9803 13.9721 46.8519C14.4628 46.7236 14.8835 46.4081 15.1443 45.9731L18.0289 40.925C18.2089 40.6179 18.3001 40.2668 18.2924 39.9108C18.2847 39.5549 18.1783 39.2081 17.9851 38.9091C17.7919 38.61 17.5195 38.3705 17.1982 38.2171C16.877 38.0637 16.5194 38.0026 16.1654 38.0404C16.1052 38.0376 16.0449 38.0376 15.9846 38.0404ZM33.3539 38.0404C33.0406 38.0851 32.7433 38.2063 32.4881 38.3934C32.233 38.5805 32.028 38.8277 31.8912 39.113C31.7544 39.3983 31.6902 39.7129 31.7041 40.029C31.7181 40.3451 31.8098 40.6529 31.9712 40.925L34.8558 45.9731C35.1165 46.4081 35.5373 46.7236 36.0279 46.8519C36.5185 46.9803 37.0399 46.9112 37.4802 46.6596C37.9206 46.408 38.2447 45.9939 38.3833 45.506C38.5218 45.0182 38.4636 44.4955 38.2212 44.05L35.3366 39.0019C35.1444 38.6578 34.8512 38.381 34.4966 38.209C34.142 38.037 33.7431 37.9782 33.3539 38.0404ZM24.8193 40.325C24.7379 40.3397 24.6576 40.3596 24.5789 40.3846C24.1447 40.4819 23.7577 40.7268 23.4838 41.0774C23.21 41.4281 23.0662 41.8629 23.0769 42.3077V48.0769C23.0769 48.587 23.2796 49.0761 23.6402 49.4368C24.0009 49.7974 24.49 50 25 50C25.5101 50 25.9992 49.7974 26.3598 49.4368C26.7205 49.0761 26.9231 48.587 26.9231 48.0769V42.3077C26.9328 42.0342 26.8841 41.7618 26.7801 41.5087C26.6761 41.2556 26.5193 41.0276 26.3202 40.8399C26.121 40.6523 25.8841 40.5093 25.6253 40.4205C25.3665 40.3317 25.0917 40.2991 24.8193 40.325Z" fill="#F8F8F8"/>
</g>
<defs>
<clipPath id="clip0_27_60">
<rect width="50" height="50" fill="white"/>
</clipPath>
</defs>
</svg>
